<?xml version="1.0" encoding="UTF-8"?>
<!-- Generator: visioncortex VTracer 0.6.4 -->
<svg version="1.1" xmlns="http://www.w3.org/2000/svg" width="256" height="256">
<path d="M0 0 C84.48 0 168.96 0 256 0 C256 84.48 256 168.96 256 256 C171.52 256 87.04 256 0 256 C0 171.52 0 87.04 0 0 Z " fill="#F4F4F4" transform="translate(0,0)"/>
<path d="M0 0 C25.79 21.56 40.84 52.06 44.24 85.33 C44.44 87.6 44.6 89.86 44.75 92.12 C44.79 92.8 44.84 93.47 44.89 94.17 C45.13 99.03 44.62 103.03 44 108 C35.42 108 26.84 108 18 108 C19.32 107.34 20.64 106.68 22 106 C20.31 104.77 18.6 103.56 16.88 102.38 C15.92 101.7 14.97 101.03 13.99 100.34 C11.01 98.64 11.01 98.64 7.63 99.79 C6.76 100.19 5.9 100.59 5 101 C4.07 99.3 4.07 99.3 3.12 97.56 C-0.85 91.18 -6.6 84.85 -14 83 C-15.98 85.64 -17.96 88.28 -20 91 C-23 88 -23 88 -24.56 84.88 C-29.21 76.5 -38.56 70.65 -45.95 64.85 C-46.62 64.24 -47.3 63.63 -48 63 C-48 62.34 -48 61.68 -48 61 C-55.17 67.15 -62.08 73.57 -69 80 C-68.03 82.68 -67.05 85.36 -66.07 88.04 C-65.44 89.8 -64.82 91.56 -64.24 93.34 C-62.67 98.06 -60.97 100.98 -57 104 C-54.05 105.23 -51.08 106.17 -48 107 C-48 107.99 -48 108.98 -48 110 C-49.65 110 -51.3 110 -53 110 C-53 109.34 -53 108.68 -53 108 C-58.61 108 -64.22 108 -70 108 C-70 108.66 -70 109.32 -70 110 C-70.66 110 -71.32 110 -72 110 C-72 105.05 -72 100.1 -72 95 C-70.68 95 -69.36 95 -68 95 C-68 92.69 -68 90.38 -68 88 C-68.62 87.79 -69.24 87.59 -69.88 87.38 C-72.85 85.45 -73.08 83.33 -74 80 C-74.33 79.67 -74.66 79.34 -75 79 C-75.3 77.63 -75.56 76.25 -75.81 74.88 C-76.48 71.66 -77.28 69.25 -79.06 66.5 C-80.87 63.68 -81.25 61.59 -81.44 58.25 C-81.54 55.99 -81.54 55.99 -82 54 C-84.29 52.03 -84.29 52.03 -87 51 C-88.81 49.31 -88.81 49.31 -90 48 C-89.5 46.52 -89.5 46.52 -89 45 C-88.51 40.67 -88.3 37.18 -90.56 33.38 C-94.06 31.4 -96.2 31.95 -100 33 C-101.97 35.95 -102.34 37.06 -102.69 40.44 C-102.77 41.2 -102.86 41.96 -102.95 42.75 C-103 45.03 -102.66 46.82 -102 49 C-102.65 49.38 -103.3 49.75 -103.98 50.14 C-113.07 55.46 -118.15 59.18 -121.92 69.26 C-123 72 -123 72 -125 75 C-124.79 80.73 -122.92 84.43 -119.94 89.12 C-115.43 96.23 -115.43 96.23 -116 101 C-113.03 101 -110.06 101 -107 101 C-104 106.75 -104 106.75 -104 109 C-112.91 108.67 -121.82 108.34 -131 108 C-131 108.66 -131 109.32 -131 110 C-136.42 109.31 -141.68 108.24 -147 107 C-146.59 106.53 -146.18 106.06 -145.76 105.57 C-145.22 104.95 -144.68 104.33 -144.12 103.69 C-143.59 103.07 -143.06 102.46 -142.51 101.82 C-140.84 99.87 -140.84 99.87 -139 97 C-139.66 97 -140.32 97 -141 97 C-141 96.34 -141 95.68 -141 95 C-133.74 95 -126.48 95 -119 95 C-120.11 93.19 -121.23 91.37 -122.38 89.5 C-123 88.48 -123.63 87.46 -124.27 86.41 C-124.84 85.61 -125.41 84.82 -126 84 C-126.66 84 -127.32 84 -128 84 C-128 82.35 -128 80.7 -128 79 C-128.99 79 -129.98 79 -131 79 C-132.82 77.03 -132.82 77.03 -134.69 74.5 C-135.62 73.25 -135.62 73.25 -136.57 71.97 C-137.04 71.32 -137.52 70.67 -138 70 C-142.51 72.15 -146.47 74.96 -150.56 77.81 C-151.33 78.33 -152.1 78.86 -152.89 79.39 C-156.94 82.22 -159.82 84.45 -162 89 C-164 92.33 -166 95.67 -168 99 C-172.74 98.14 -172.74 98.14 -175.06 96.88 C-177.57 95.74 -178.42 96.1 -181 97 C-185.53 99.99 -189.63 103.51 -193.38 107.44 C-196 110 -196 110 -199 110 C-199 106.7 -199 103.4 -199 100 C-200.98 100 -202.96 100 -205 100 C-205 99.67 -205 99.34 -205 99 C-202.69 99 -200.38 99 -198 99 C-198.06 97.88 -198.12 96.77 -198.18 95.62 C-199.35 62.31 -185.1 32.88 -162.79 8.8 C-145.68 -9.05 -123.82 -20.15 -100 -26 C-98.74 -26.34 -98.74 -26.34 -97.46 -26.68 C-63.98 -34.39 -25.79 -21.15 0 0 Z " fill="#C6DFF5" transform="translate(211,44)"/>
<path d="M0 0 C2.81 1.94 2.81 1.94 5 5 C5.71 9.49 5.2 13.65 4 18 C4.95 18.45 5.9 18.91 6.88 19.38 C10 21 10 21 12 23 C12.24 24.85 12.24 24.85 12.31 27.06 C12.72 31.8 14.41 34.85 16.86 38.86 C18.43 41.81 18.66 44.71 19 48 C19.66 48.66 20.32 49.32 21 50 C22.58 54.26 23.78 58.63 25 63 C23 64 23 64 20.12 63.25 C17.27 62.11 15.42 60.83 13 59 C12.01 59 11.02 59 10 59 C9.77 63.74 10.66 67.47 12 72 C12 73.32 12 74.64 12 76 C9.69 76 7.38 76 5 76 C4.81 76.59 4.61 77.18 4.41 77.79 C3.06 81.91 1.68 86 0 90 C-0.84 88.92 -0.84 88.92 -1.69 87.81 C-3.92 84.99 -3.92 84.99 -6.44 82.69 C-9.55 79.42 -14 74.75 -14 70 C-15.11 70.19 -16.23 70.37 -17.38 70.56 C-21 71 -21 71 -23 70 C-23.65 67.91 -24.3 65.83 -24.93 63.74 C-26.19 60.51 -27.9 57.8 -29.75 54.88 C-32.98 49.49 -32.98 49.49 -33.19 45.25 C-32 41.99 -30.68 38.95 -29.02 35.91 C-27.87 33.85 -27.87 33.85 -26.81 30.94 C-23.03 24.81 -16.51 20.84 -10 18 C-10.21 17.2 -10.41 16.39 -10.62 15.56 C-11.1 11.04 -10.56 7.27 -9 3 C-6.33 -0.04 -3.97 -0.77 0 0 Z " fill="#050505" transform="translate(118,75)"/>
<path d="M0 0 C0.94 0.45 0.94 0.45 1.89 0.9 C29.94 14.5 50.57 38.85 63 67 C63.36 67.71 63.73 68.42 64.11 69.15 C68.53 78.94 67.43 89.69 67.25 100.19 C67.23 102.21 67.21 104.23 67.2 106.25 C67.15 111.17 67.08 116.08 67 121 C66.67 121 66.34 121 66 121 C65.94 120.04 65.94 120.04 65.88 119.07 C63.85 87.9 56.2 61.32 36 37 C35.33 36.18 34.66 35.36 33.97 34.51 C14.88 11.95 -15.89 -2.35 -45 -5 C-79.43 -7.04 -109.55 4.36 -135.55 26.84 C-159.23 47.94 -173.75 78.74 -175.7 110.31 C-175.86 113.87 -175.95 117.43 -176 121 C-178.31 121 -180.62 121 -183 121 C-184.27 86.57 -171.64 55.39 -148.62 29.88 C-110.19 -11.46 -51.54 -24.98 0 0 Z " fill="#0A0B0B" transform="translate(189,22)"/>
<path d="M0 0 C2 0 2 0 4 1.94 C4.66 2.62 4.66 2.62 5.32 3.32 C7.42 5.42 9.61 7.39 11.81 9.38 C12.68 10.15 13.54 10.93 14.43 11.74 C16.02 13.14 17.64 14.52 19.29 15.86 C24.11 19.8 26.57 23.24 29 29 C31.61 26.48 33.89 23.95 36 21 C40.58 22.46 43.72 25.05 47.19 28.25 C47.72 28.72 48.25 29.18 48.8 29.66 C52.26 32.82 53.9 35.45 55 40 C55.56 39.46 56.11 38.93 56.69 38.38 C57.83 37.69 57.83 37.69 59 37 C62.74 38.17 65.97 40.05 69.31 42.06 C70.2 42.59 71.08 43.12 71.99 43.66 C72.98 44.32 72.98 44.32 74 45 C74 45.33 74 45.66 74 46 C72.02 46 70.04 46 68 46 C68 46.66 68 47.32 68 48 C66.85 47.77 66.85 47.77 65.68 47.54 C60.83 46.83 56.01 46.64 51.12 46.44 C50.15 46.39 49.18 46.35 48.17 46.31 C45.78 46.2 43.39 46.1 41 46 C41 46.66 41 47.32 41 48 C40.01 47.75 40.01 47.75 39.01 47.5 C35.27 46.88 31.64 46.98 27.88 47.06 C21.93 47.13 16.47 46.78 10.63 45.5 C6.66 44.74 2.66 44.56 -1.37 44.34 C-4.16 43.98 -5.64 43.51 -8 42 C-9.56 39.75 -9.56 39.75 -11.02 36.99 C-11.54 36.01 -12.07 35.02 -12.62 34 C-13.16 32.97 -13.69 31.94 -14.25 30.88 C-15.08 29.31 -15.08 29.31 -15.93 27.72 C-17.3 25.15 -18.65 22.58 -20 20 C-16.03 15.16 -11.83 10.81 -7.19 6.62 C-6.04 5.58 -4.88 4.53 -3.73 3.48 C-2.38 2.25 -2.38 2.25 -1 1 C-0.67 0.67 -0.34 0.34 0 0 Z " fill="#020401" transform="translate(161,105)"/>
<path d="M0 0 C3.45 1.43 5.1 3.1 7.25 6.12 C8.03 7.21 8.03 7.21 8.83 8.32 C9.41 9.15 9.41 9.15 10 10 C10.99 9.67 11.98 9.34 13 9 C12.67 10.98 12.34 12.96 12 15 C12.99 14.67 13.98 14.34 15 14 C16.17 15.98 17.34 17.96 18.5 19.94 C19.15 21.04 19.8 22.14 20.47 23.28 C22 26 22 26 22 27 C19.1 27.03 16.21 27.05 13.31 27.06 C12.09 27.08 12.09 27.08 10.84 27.09 C6.76 27.1 2.98 27.03 -1 26 C-1 26.66 -1 27.32 -1 28 C-0.34 28 0.32 28 1 28 C-0.56 31.83 -3.03 34.18 -6 37 C-6.66 37.66 -7.32 38.32 -8 39 C-14 41.3 -19.63 41.21 -26 41 C-24.88 38.03 -23.78 35.67 -22 33 C-22.66 33 -23.32 33 -24 33 C-24.29 33.58 -24.58 34.16 -24.88 34.75 C-25.92 36.83 -26.96 38.92 -28 41 C-33.68 40.1 -33.68 40.1 -35.88 39.44 C-41.51 38.28 -45.82 38.76 -51 41 C-53.81 41.12 -53.81 41.12 -56 41 C-51.45 35.25 -46.36 29.78 -40 26 C-37.86 26.21 -37.86 26.21 -36 27 C-32.14 28.62 -32.14 28.62 -28 29 C-27.4 27.71 -27.4 27.71 -26.79 26.4 C-22.94 18.68 -19.24 13.81 -12 9 C-9.79 7.38 -7.62 5.72 -5.44 4.06 C-3.63 2.71 -1.81 1.35 0 0 Z " fill="#070906" transform="translate(71,113)"/>
<path d="M0 0 C5.67 1.96 9.31 5.63 12 11 C12.54 15.93 12.54 19.87 10.38 24.38 C6.2 28.99 1.99 31.71 -4.25 32.31 C-8.74 31.94 -11.52 30.83 -15 28 C-18.78 23.12 -20.37 19.29 -20.28 13.06 C-19.65 8.45 -16.73 5.64 -13.38 2.69 C-8.92 -0.48 -5.35 -0.49 0 0 Z " fill="#0C0C0C" transform="translate(69,157)"/>
<path d="M0 0 C11.19 0.11 11.19 0.11 15.86 4.71 C20.02 9.51 20.72 12.53 20.66 18.71 C20.14 23.35 17.72 26.07 14.31 29.06 C11.3 30.91 8.82 31.37 5.36 31.35 C4.23 31.34 4.23 31.34 3.07 31.34 C2.28 31.33 1.5 31.32 0.69 31.31 C-0.11 31.31 -0.91 31.3 -1.73 31.3 C-3.69 31.29 -5.66 31.27 -7.62 31.25 C-7.65 27 -7.67 22.74 -7.68 18.49 C-7.68 17.04 -7.69 15.59 -7.7 14.14 C-7.71 12.07 -7.72 9.99 -7.72 7.91 C-7.73 6.66 -7.73 5.41 -7.74 4.12 C-7.53 -1.17 -4.68 0.06 0 0 Z " fill="#0F0F0F" transform="translate(92.625,156.75)"/>
<path d="M0 0 C4.78 2.16 7.4 4.54 9.84 9.32 C9.84 10.31 9.84 11.3 9.84 12.32 C4.43 12.67 4.43 12.67 1.84 12.32 C1.36 11.66 0.89 11 0.4 10.32 C-0.97 8.11 -0.97 8.11 -3.27 7.95 C-6.74 7.85 -6.74 7.85 -10.16 8.32 C-12.16 11.31 -12.44 11.95 -12.41 15.32 C-12.42 16 -12.42 16.68 -12.43 17.38 C-12.26 19.64 -12.26 19.64 -10.16 22.32 C-7.96 22.68 -7.96 22.68 -5.54 22.5 C-4.72 22.48 -3.9 22.45 -3.06 22.42 C-2.12 22.37 -2.12 22.37 -1.16 22.32 C-3.8 21.99 -6.44 21.66 -9.16 21.32 C-9.16 19.01 -9.16 16.7 -9.16 14.32 C-2.89 14.32 3.38 14.32 9.84 14.32 C9.84 21.13 8.47 22.97 4.46 28.07 C0.15 31.38 -4.9 31.88 -10.16 31.32 C-15.1 28.7 -18.65 25.34 -21.16 20.32 C-21.71 15.36 -21.73 11.45 -19.48 6.94 C-13.9 0.61 -8.45 -2.67 0 0 Z " fill="#0C0C0C" transform="translate(35.1640625,157.68359375)"/>
<path d="M0 0 C16.54 0 16.54 0 21.88 4.62 C23.68 8.44 23.08 12 22 16 C19.94 19.06 19.94 19.06 18 21 C18.36 21.47 18.72 21.94 19.09 22.43 C19.79 23.36 19.79 23.36 20.5 24.31 C20.96 24.93 21.43 25.54 21.91 26.18 C23 28 23 28 23 31 C17.89 31.79 17.89 31.79 15 31 C12.47 28.28 10.72 25.28 9 22 C8.67 24.97 8.34 27.94 8 31 C5.36 31 2.72 31 0 31 C0 20.77 0 10.54 0 0 Z " fill="#0D0D0D" transform="translate(208,157)"/>
<path d="M0 0 C1.45 0.03 1.45 0.03 2.94 0.06 C4.49 3.83 6.04 7.61 7.58 11.38 C8.11 12.66 8.63 13.94 9.16 15.23 C9.92 17.07 10.68 18.92 11.43 20.77 C11.89 21.88 12.34 22.99 12.81 24.13 C13.94 27.06 13.94 27.06 14.94 31.06 C11.97 31.06 9 31.06 5.94 31.06 C5.61 30.07 5.28 29.08 4.94 28.06 C1.31 27.73 -2.32 27.4 -6.06 27.06 C-6.39 28.38 -6.72 29.7 -7.06 31.06 C-9.7 31.06 -12.34 31.06 -15.06 31.06 C-13.08 24.03 -10.69 17.27 -7.94 10.5 C-7.58 9.6 -7.22 8.7 -6.85 7.77 C-3.75 0.08 -3.75 0.08 0 0 Z " fill="#0A0A0A" transform="translate(130.0625,156.9375)"/>
<path d="M0 0 C1.21 0.03 1.21 0.03 2.44 0.06 C6.07 6.7 8.95 13.61 11.75 20.62 C12.11 21.53 12.47 22.44 12.85 23.37 C15.44 29.92 15.44 29.92 15.44 31.06 C12.47 31.06 9.5 31.06 6.44 31.06 C6.11 30.07 5.78 29.08 5.44 28.06 C1.81 27.73 -1.82 27.4 -5.56 27.06 C-5.89 28.38 -6.22 29.7 -6.56 31.06 C-9.2 31.06 -11.84 31.06 -14.56 31.06 C-12.58 24.03 -10.19 17.27 -7.44 10.5 C-7.08 9.6 -6.72 8.7 -6.35 7.77 C-3.25 0.08 -3.25 0.08 0 0 Z " fill="#080808" transform="translate(190.5625,156.9375)"/>
<path d="M0 0 C4.04 1.57 6.47 4.44 9.25 7.62 C9.71 8.14 10.17 8.66 10.64 9.19 C11.77 10.45 12.88 11.73 14 13 C12.68 11.02 11.36 9.04 10 7 C10.33 6.34 10.66 5.68 11 5 C11.36 5.45 11.73 5.89 12.1 6.36 C14.6 9.36 17.01 12.12 20.12 14.5 C23.55 17.48 25.07 19.92 27 24 C26.67 24.66 26.34 25.32 26 26 C25.67 26 25.34 26 25 26 C24.01 26.5 24.01 26.5 23 27 C22.53 26.67 22.06 26.33 21.58 25.99 C19.45 24.49 17.32 22.99 15.19 21.5 C14.45 20.98 13.71 20.45 12.95 19.91 C11.88 19.17 11.88 19.17 10.79 18.41 C10.14 17.95 9.48 17.48 8.81 17.01 C6.91 15.76 6.91 15.76 4 16 C3.67 17.65 3.34 19.3 3 21 C1.68 20.67 0.36 20.34 -1 20 C-1 19.67 -1 19.34 -1 19 C-3.97 21.31 -6.94 23.62 -10 26 C-10 23 -10 23 -8 20 C-8.45 20.5 -8.91 20.99 -9.38 21.5 C-11 23 -11 23 -13 23 C-13.66 20.69 -14.32 18.38 -15 16 C-14.42 15.43 -13.84 14.86 -13.24 14.28 C-8.59 9.68 -4.17 5.03 0 0 Z " fill="#3EAC01" transform="translate(161,111)"/>
<path d="M0 0 C2.64 0 5.28 0 8 0 C9.98 4.95 11.96 9.9 14 15 C16.61 12.39 17.34 9.82 18.62 6.38 C19.07 5.19 19.52 4 19.98 2.77 C20.48 1.4 20.48 1.4 21 0 C23.64 0 26.28 0 29 0 C28.33 3.94 27.16 7.45 25.71 11.18 C25.04 12.91 25.04 12.91 24.36 14.68 C23.89 15.88 23.42 17.08 22.94 18.31 C22.47 19.53 21.99 20.75 21.51 22 C20.34 25 19.17 28 18 31 C15.69 31 13.38 31 11 31 C9.43 27.07 7.86 23.14 6.3 19.2 C5.77 17.86 5.24 16.53 4.7 15.19 C3.93 13.27 3.17 11.34 2.41 9.42 C1.95 8.26 1.48 7.1 1.01 5.91 C0 3 0 3 0 0 Z " fill="#0D0D0D" transform="translate(146,157)"/>
<path d="M0 0 C1 3 1 3 0 6 C34.65 6 69.3 6 105 6 C105 6.33 105 6.66 105 7 C101.04 7.94 97.36 8.12 93.29 8.12 C92.62 8.12 91.96 8.12 91.28 8.12 C89.07 8.12 86.86 8.12 84.65 8.11 C83.07 8.11 81.48 8.11 79.89 8.11 C75.59 8.11 71.29 8.11 66.98 8.1 C62.48 8.1 57.98 8.09 53.49 8.09 C44.97 8.09 36.45 8.08 27.93 8.07 C18.24 8.06 8.54 8.06 -1.16 8.05 C-21.11 8.04 -41.05 8.02 -61 8 C-61 7.34 -61 6.68 -61 6 C-42.52 5.67 -24.04 5.34 -5 5 C-7.47 2.53 -7.47 2.53 -10 0 C-6.72 -1.64 -3.57 -0.52 0 0 Z " fill="#303030" transform="translate(111,194)"/>
<path d="M0 0 C5.94 0 11.88 0 18 0 C18 2.31 18 4.62 18 7 C16.02 7 14.04 7 12 7 C12 12.94 12 18.88 12 25 C13.65 25 15.3 25 17 25 C17 26.98 17 28.96 17 31 C11.39 31 5.78 31 0 31 C0 29.02 0 27.04 0 25 C1.65 25 3.3 25 5 25 C5 19.06 5 13.12 5 7 C3.35 7 1.7 7 0 7 C0 4.69 0 2.38 0 0 Z " fill="#060606" transform="translate(235,157)"/>
<path d="M0 0 C1.12 1.09 2.24 2.19 3.32 3.32 C5.42 5.42 7.61 7.39 9.81 9.38 C10.68 10.15 11.54 10.93 12.43 11.73 C14.04 13.15 15.67 14.55 17.32 15.93 C21.31 19.24 24.27 21.93 26 27 C25.5 28.49 25.5 28.49 25 30 C22.99 28.19 21.7 26.51 20.25 24.19 C17.6 20.43 14.55 17.86 11 15 C10.5 14.5 10.5 14.5 10 14 C11.98 16.97 11.98 16.97 14 20 C13.67 20.66 13.34 21.32 13 22 C11.88 20.63 11.88 20.63 10.73 19.23 C9.74 18.03 8.75 16.83 7.75 15.62 C7.26 15.02 6.77 14.42 6.26 13.8 C5.78 13.22 5.29 12.64 4.8 12.04 C4.36 11.5 3.92 10.97 3.46 10.42 C1.79 8.8 0.12 7.94 -2 7 C-4.39 9.32 -6.73 11.69 -9.06 14.06 C-9.74 14.72 -10.41 15.38 -11.11 16.05 C-12.97 17.97 -14.59 19.73 -16 22 C-16.12 25.88 -16.12 25.88 -15 29 C-11.53 26.53 -11.53 26.53 -8 24 C-9.5 27.11 -11.08 30.12 -13 33 C-13.66 33 -14.32 33 -15 33 C-17.31 28.38 -19.62 23.76 -22 19 C-17.05 13.97 -12.1 9.08 -6.73 4.51 C-4.97 3.02 -4.97 3.02 -3.4 1.3 C-2 0 -2 0 0 0 Z " fill="#090E08" transform="translate(163,105)"/>
<path d="M0 0 C0.33 0 0.66 0 1 0 C1 1.65 1 3.3 1 5 C3.97 5 6.94 5 10 5 C13 10.75 13 10.75 13 13 C4.09 12.67 -4.82 12.34 -14 12 C-14 12.66 -14 13.32 -14 14 C-19.42 13.31 -24.68 12.24 -30 11 C-29.06 9.89 -28.13 8.79 -27.19 7.69 C-26.67 7.07 -26.14 6.46 -25.61 5.82 C-24.13 4.15 -22.6 2.56 -21 1 C-20.67 2.32 -20.34 3.64 -20 5 C-13.36 5.21 -7.47 4.51 -1 3 C-0.67 2.01 -0.34 1.02 0 0 Z " fill="#C9E0F3" transform="translate(94,140)"/>
<path d="M0 0 C0.33 0.66 0.66 1.32 1 2 C1.62 2.31 2.24 2.62 2.88 2.94 C5.19 4.1 6.49 4.89 8 7 C8.38 10.01 8.59 12.04 6.96 14.67 C3.93 16.72 0.72 16.27 -2.81 16.25 C-8.36 16.32 -8.36 16.32 -13.32 18.61 C-14.9 20.5 -14.9 20.5 -16.05 22.5 C-16.37 23 -16.68 23.49 -17 24 C-17.66 24 -18.32 24 -19 24 C-18.67 23.36 -18.34 22.72 -18 22.06 C-16.93 20.23 -16.93 20.23 -17 19 C-18.48 19.99 -18.48 19.99 -20 21 C-17.63 13.47 -11.29 9.54 -5.3 4.87 C-3.4 3.33 -1.68 1.77 0 0 Z " fill="#3DAB01" transform="translate(70,116)"/>
<path d="M0 0 C3.88 0.73 5.46 1.5 8 4.56 C8.91 8.86 8.73 12.32 6.5 16.12 C2.95 18.16 -0.01 18.35 -4 17.56 C-6.5 16.06 -6.5 16.06 -8 13.56 C-8.72 8.56 -8.81 6.71 -5.88 2.56 C-3 0.56 -3 0.56 0 0 Z " fill="#F6F6F6" transform="translate(65,163.4375)"/>
<path d="M0 0 C3.71 4.34 6.3 8.55 7.88 14.06 C9.32 17.83 10.83 19.5 14 22 C16.94 23.23 19.92 24.17 23 25 C23 25.99 23 26.98 23 28 C21.35 28 19.7 28 18 28 C18 27.34 18 26.68 18 26 C12.39 26 6.78 26 1 26 C1 26.66 1 27.32 1 28 C0.34 28 -0.32 28 -1 28 C-1 23.05 -1 18.1 -1 13 C0.32 13 1.64 13 3 13 C2.42 7.69 2.42 7.69 0 3 C0 2.01 0 1.02 0 0 Z " fill="#131415" transform="translate(140,126)"/>
<path d="M0 0 C6.58 2.78 6.58 2.78 9.19 4.12 C11.1 5.05 12.93 5.56 15 6 C15 4.02 15 2.04 15 0 C17 2 17 2 17.12 4.62 C17.08 5.41 17.04 6.19 17 7 C15.68 7.33 14.36 7.66 13 8 C13.01 8.84 13.02 9.69 13.04 10.55 C13.05 12.2 13.05 12.2 13.06 13.88 C13.07 14.97 13.09 16.06 13.1 17.18 C13 20 13 20 12 22 C11.34 22 10.68 22 10 22 C9.67 21.34 9.34 20.68 9 20 C5.97 19.34 5.97 19.34 3 19 C0.99 12.5 -0.39 6.82 0 0 Z " fill="#D1E3F1" transform="translate(127,132)"/>
<path d="M0 0 C8 0 8 0 10.5 1.5 C12.62 5.04 12.79 7.98 12 12 C10.5 14.5 10.5 14.5 8 16 C5.36 16 2.72 16 0 16 C0 10.72 0 5.44 0 0 Z " fill="#F9F9F9" transform="translate(93,165)"/>
<path d="M0 0 C3 1 3 1 4 3 C4.72 3.43 5.44 3.87 6.19 4.31 C10.73 7.04 14.3 9.32 16.38 14.31 C16.58 15.2 16.79 16.09 17 17 C13 15 13 15 11.19 13.81 C6.93 12.23 2.26 13.81 -2 15 C-4.06 10.63 -4.06 10.63 -3.81 8.06 C-2.72 5.28 -1.38 2.65 0 0 Z " fill="#3DAB01" transform="translate(197,128)"/>
<path d="M0 0 C3.56 0.31 3.56 0.31 5.56 1.38 C7.2 4.54 6.42 6.96 5.56 10.31 C2.33 12.47 1.31 12.78 -2.44 12.31 C-4.25 11.25 -4.25 11.25 -5.44 9.31 C-5.75 5.75 -5.75 5.75 -5.44 2.31 C-3.44 0.31 -3.44 0.31 0 0 Z " fill="#131313" transform="translate(183.4375,235.6875)"/>
<path d="M0 0 C0.99 0.33 1.98 0.66 3 1 C2.34 1.66 1.68 2.32 1 3 C3.97 3.99 6.94 4.98 10 6 C10 6.66 10 7.32 10 8 C9.34 7.97 8.67 7.93 7.99 7.89 C0.99 7.64 0.99 7.64 -5 11 C-5.33 11.66 -5.66 12.32 -6 13 C-9.45 14.73 -12.16 15.22 -16 15 C-11.42 9.22 -6.31 3.91 0 0 Z " fill="#111512" transform="translate(31,139)"/>
<path d="M0 0 C1.5 1.12 1.5 1.12 3 3 C3.19 6.19 3.19 6.19 3 9 C-4.04 10.59 -9.86 11.17 -17 10 C-17.33 8.68 -17.66 7.36 -18 6 C-18.99 6 -19.98 6 -21 6 C-21 5.34 -21 4.68 -21 4 C-13.74 4 -6.48 4 1 4 C0.67 2.68 0.34 1.36 0 0 Z " fill="#EEEEEF" transform="translate(91,135)"/>
<path d="M0 0 C7.3 -0.36 7.3 -0.36 10.06 1.06 C11.57 4.17 10.73 6.73 10 10 C9 11 9 11 6.93 11.1 C3.47 11.05 3.47 11.05 0 11 C0 7.37 0 3.74 0 0 Z " fill="#191919" transform="translate(121,245)"/>
<path d="M0 0 C3.93 4.49 8 9.85 8 16 C6.54 15.89 5.08 15.76 3.62 15.62 C2.81 15.56 2 15.49 1.16 15.41 C-1 15 -1 15 -3 13 C-3.62 8.81 -3.66 5.12 -1.5 1.44 C-1 0.96 -0.51 0.49 0 0 Z " fill="#F1F1F2" transform="translate(127,116)"/>
<path d="M0 0 C0 1.65 0 3.3 0 5 C-7.26 5 -14.52 5 -22 5 C-22 5.66 -22 6.32 -22 7 C-23.65 7 -25.3 7 -27 7 C-27.33 6.34 -27.66 5.68 -28 5 C-18.2 0.83 -10.72 -0.73 0 0 Z " fill="#0B0C0D" transform="translate(102,147)"/>
<path d="M0 0 C1.94 0.81 1.94 0.81 3.94 2.81 C4.5 9.89 4.5 9.89 2.69 12.88 C0.94 13.81 0.94 13.81 -1.12 13.62 C-3.06 12.81 -3.06 12.81 -5.06 10.81 C-5.62 3.74 -5.62 3.74 -3.81 0.75 C-2.06 -0.19 -2.06 -0.19 0 0 Z " fill="#262626" transform="translate(28.0625,198.1875)"/>
<path d="M0 0 C0.99 0.99 1.98 1.98 3 3 C3.68 2.26 3.68 2.26 4.38 1.5 C6 0 6 0 8 0 C8.33 1.65 8.66 3.3 9 5 C9.33 5 9.66 5 10 5 C10.12 10.75 10.12 10.75 9 13 C8.34 13 7.68 13 7 13 C6.67 12.34 6.34 11.68 6 11 C2.97 10.34 2.97 10.34 0 10 C-1.12 3.38 -1.12 3.38 0 0 Z " fill="#C2DDF3" transform="translate(130,141)"/>
<path d="M0 0 C0.66 0 1.32 0 2 0 C2.67 1.27 3.34 2.54 4 3.81 C4.56 4.87 4.56 4.87 5.12 5.96 C6 8 6 8 6 11 C1.25 10.12 1.25 10.12 -1 9 C-0.67 10.65 -0.34 12.3 0 14 C-3 13 -3 13 -4.17 11.22 C-4.5 10.51 -4.84 9.8 -5.19 9.06 C-5.53 8.35 -5.88 7.64 -6.23 6.91 C-7 5 -7 5 -7 3 C-3.63 3.55 -1.92 4.05 1 6 C0.34 4.35 -0.32 2.7 -1 1 C-0.67 0.67 -0.34 0.34 0 0 Z " fill="#141414" transform="translate(200,228)"/>
<path d="M0 0 C0.99 0.33 1.98 0.66 3 1 C2.01 2.49 2.01 2.49 1 4 C2.32 4.99 3.64 5.98 5 7 C4.67 8.98 4.34 10.96 4 13 C1.12 13.62 1.12 13.62 -2 14 C-4 12 -4 12 -4.38 9.25 C-3.91 5.26 -2.41 3.16 0 0 Z " fill="#262626" transform="translate(250,198)"/>
<path d="M0 0 C0.66 0.33 1.32 0.66 2 1 C-0.52 6.05 -6.62 9.47 -11.19 12.56 C-14.81 15.04 -17.4 17.42 -20 21 C-20.66 21 -21.32 21 -22 21 C-21.02 15.26 -18.13 13.13 -13.66 9.88 C-12.78 9.26 -11.91 8.64 -11 8 C-8.98 6.52 -6.96 5.04 -4.94 3.56 C-3.29 2.37 -1.65 1.19 0 0 Z " fill="#0E150D" transform="translate(70,114)"/>
<path d="M0 0 C3.47 1.49 3.47 1.49 7 3 C7 3.66 7 4.32 7 5 C5.35 4.67 3.7 4.34 2 4 C2 4.66 2 5.32 2 6 C3.32 6.66 4.64 7.32 6 8 C4.35 8.33 2.7 8.66 1 9 C1.99 9.66 2.98 10.32 4 11 C4 11.99 4 12.98 4 14 C-1.75 13.12 -1.75 13.12 -4 12 C-3.34 7.61 -1.81 4.02 0 0 Z " fill="#191919" transform="translate(64,232)"/>
<path d="M0 0 C0.66 0 1.32 0 2 0 C2.06 0.63 2.12 1.25 2.18 1.9 C2.27 2.72 2.35 3.53 2.44 4.38 C2.52 5.19 2.6 6 2.68 6.84 C2.89 9.04 2.89 9.04 4 11 C4.13 13.67 4.04 16.32 4 19 C0.59 16.12 -0.87 14.63 -1.81 10.19 C-1.87 9.14 -1.94 8.08 -2 7 C-2.66 8.32 -3.32 9.64 -4 11 C-4.81 8.88 -4.81 8.88 -5 6 C-3.59 3.59 -2.01 2.01 0 0 Z " fill="#E6E6E6" transform="translate(97,115)"/>
<path d="M0 0 C2.31 0.66 4.62 1.32 7 2 C8.12 6.75 8.12 6.75 7 9 C5.02 9 3.04 9 1 9 C1 9.99 1 10.98 1 12 C0.01 12 -0.98 12 -2 12 C-1.86 10.37 -1.71 8.75 -1.56 7.12 C-1.48 6.22 -1.4 5.32 -1.32 4.38 C-1 2 -1 2 0 0 Z " fill="#0F0F0F" transform="translate(93,241)"/>
<path d="M0 0 C2.64 0 5.28 0 8 0 C7.67 2.31 7.34 4.62 7 7 C5.35 7 3.7 7 2 7 C2 7.66 2 8.32 2 9 C3.65 9 5.3 9 7 9 C7 9.99 7 10.98 7 12 C4.36 12 1.72 12 -1 12 C-0.67 8.04 -0.34 4.08 0 0 Z " fill="#0E0E0E" transform="translate(107,244)"/>
<path d="M0 0 C3 1 3 1 5 3 C7.6 2.68 7.6 2.68 10 2 C10 2.66 10 3.32 10 4 C8 5.62 8 5.62 6 7 C6.33 9.31 6.66 11.62 7 14 C6.01 14 5.02 14 4 14 C3.67 12.68 3.34 11.36 3 10 C2.01 10.66 1.02 11.32 0 12 C-0.99 12 -1.98 12 -3 12 C-2.34 10.68 -1.68 9.36 -1 8 C-0.34 8 0.32 8 1 8 C0.67 5.36 0.34 2.72 0 0 Z " fill="#1F1F1F" transform="translate(77,237)"/>
<path d="M0 0 C4.21 0.53 6.5 2.9 9.56 5.69 C10.51 6.54 11.46 7.39 12.44 8.26 C15.06 11.07 16.62 13.42 18 17 C17.67 17.99 17.34 18.98 17 20 C14.99 18.19 13.7 16.51 12.25 14.19 C9.97 10.95 7.65 8.93 4.62 6.46 C2.53 4.58 1.25 2.5 0 0 Z " fill="#111710" transform="translate(171,115)"/>
<path d="M0 0 C4.58 1.46 7.72 4.05 11.19 7.25 C11.99 7.95 11.99 7.95 12.8 8.66 C16.26 11.82 17.9 14.45 19 19 C18.01 19 17.02 19 16 19 C15.81 18.13 15.63 17.27 15.44 16.38 C13.33 11.43 9.66 8.29 4.84 5.95 C3 5 3 5 2 3 C1.34 3 0.68 3 0 3 C-0.66 4.65 -1.32 6.3 -2 8 C-2.66 7.01 -3.32 6.02 -4 5 C-2.68 3.35 -1.36 1.7 0 0 Z " fill="#141D10" transform="translate(197,126)"/>
<path d="M0 0 C2.81 1.58 5.18 3.26 7.56 5.44 C7.56 6.1 7.56 6.76 7.56 7.44 C3.27 7.11 -1.02 6.78 -5.44 6.44 C-5.77 5.12 -6.1 3.8 -6.44 2.44 C-3.15 -0.73 -3.15 -0.73 0 0 Z " fill="#131E10" transform="translate(222.4375,142.5625)"/>
<path d="M0 0 C3.13 2.69 4.76 5.95 6.69 9.56 C7.62 11.3 7.62 11.3 8.57 13.07 C10 16 10 16 10 18 C15.28 18.66 20.56 19.32 26 20 C26 20.33 26 20.66 26 21 C19.8 22.17 15.22 22.51 9.68 19.22 C3.27 14.57 1.78 7.33 0 0 Z " fill="#A1B0BB" transform="translate(143,129)"/>
<path d="M0 0 C0 0.99 0 1.98 0 3 C-0.99 3 -1.98 3 -3 3 C-2.67 6.3 -2.34 9.6 -2 13 C-2.99 13 -3.98 13 -5 13 C-5.33 10.03 -5.66 7.06 -6 4 C-7.32 4 -8.64 4 -10 4 C-10 3.01 -10 2.02 -10 1 C-6.59 0.22 -3.49 -0.1 0 0 Z " fill="#282828" transform="translate(159,242)"/>
<path d="M0 0 C4.88 0.88 4.88 0.88 6 2 C6.31 4.31 6.31 4.31 6 7 C4 9.31 4 9.31 2 11 C3.32 11.33 4.64 11.66 6 12 C6 12.66 6 13.32 6 14 C3.03 14 0.06 14 -3 14 C-0.57 9.14 -0.57 9.14 2 7 C2.66 7 3.32 7 4 7 C4 5.35 4 3.7 4 2 C1.69 2.66 -0.62 3.32 -3 4 C-2.01 2.68 -1.02 1.36 0 0 Z " fill="#1E1E1E" transform="translate(237,198)"/>
<path d="M0 0 C2.31 0 4.62 0 7 0 C7 0.99 7 1.98 7 3 C6.34 3 5.68 3 5 3 C5 5.31 5 7.62 5 10 C5.99 10 6.98 10 8 10 C8 10.66 8 11.32 8 12 C5.69 12 3.38 12 1 12 C1.33 9.03 1.66 6.06 2 3 C1.34 3 0.68 3 0 3 C0 2.01 0 1.02 0 0 Z " fill="#2E2E2E" transform="translate(137,244)"/>
<path d="M0 0 C0 3.3 0 6.6 0 10 C0.66 10 1.32 10 2 10 C1.67 10.99 1.34 11.98 1 13 C-0.65 13 -2.3 13 -4 13 C-4 10.03 -4 7.06 -4 4 C-4.99 4 -5.98 4 -7 4 C-6.67 3.01 -6.34 2.02 -6 1 C-3.9 0.25 -2.23 0 0 0 Z " fill="#242424" transform="translate(171,239)"/>
<path d="M0 0 C1.04 3.13 0.93 3.99 0 7 C-4 7 -4 7 -6.69 4.62 C-9 2 -9 2 -10 0 C-6.72 -1.64 -3.57 -0.52 0 0 Z " fill="#101010" transform="translate(111,194)"/>
<path d="M0 0 C4.75 0.75 4.75 0.75 7 3 C6.75 6.79 4.72 8.54 2 11 C3.32 11.66 4.64 12.32 6 13 C3.03 13 0.06 13 -3 13 C-1.38 10.96 0.29 8.96 2 7 C2.66 7 3.32 7 4 7 C4 5.35 4 3.7 4 2 C2.68 2 1.36 2 0 2 C0 2.66 0 3.32 0 4 C-0.66 4 -1.32 4 -2 4 C-1.34 2.68 -0.68 1.36 0 0 Z " fill="#232323" transform="translate(14,198)"/>
<path d="M0 0 C2.64 0 5.28 0 8 0 C7.67 0.99 7.34 1.98 7 3 C5.68 3 4.36 3 3 3 C3 5.31 3 7.62 3 10 C3.66 10.33 4.32 10.66 5 11 C3.35 11 1.7 11 0 11 C0 7.37 0 3.74 0 0 Z " fill="#121212" transform="translate(121,245)"/>
<path d="M0 0 C2.06 0.44 2.06 0.44 4 1 C4 3.64 4 6.28 4 9 C2.06 9.56 2.06 9.56 0 10 C-1 9 -1 9 -1.13 7.19 C-1.13 6.47 -1.13 5.74 -1.12 5 C-1.13 4.28 -1.13 3.56 -1.13 2.81 C-1 1 -1 1 0 0 Z " fill="#EBEBEB" transform="translate(26,200)"/>
<path d="M0 0 C2.4 2.88 4.47 5.56 6 9 C3.55 9.87 2.32 10.1 -0.19 9.31 C-2 8 -2 8 -2.94 6.12 C-3.02 3.23 -1.88 2.11 0 0 Z " fill="#DBE5F0" transform="translate(127,116)"/>
<path d="M0 0 C0.69 0.08 1.37 0.17 2.08 0.25 C3.43 0.41 3.43 0.41 4.81 0.56 C5.71 0.67 6.6 0.77 7.52 0.88 C10.13 1.16 10.13 1.16 13 0 C13.99 0.99 14.98 1.98 16 3 C14.02 3 12.04 3 10 3 C10 3.66 10 4.32 10 5 C4.06 4.01 4.06 4.01 -2 3 C-1.34 2.67 -0.68 2.34 0 2 C0 1.34 0 0.68 0 0 Z " fill="#0C0D0B" transform="translate(219,148)"/>
<path d="M0 0 C0.33 1.32 0.66 2.64 1 4 C-0.65 6.14 -0.65 6.14 -2.94 8.25 C-3.69 8.96 -4.44 9.66 -5.21 10.39 C-5.8 10.92 -6.39 11.45 -7 12 C-8.32 11.34 -9.64 10.68 -11 10 C-5.56 5.05 -5.56 5.05 0 0 Z " fill="#286B03" transform="translate(70,116)"/>
<path d="M0 0 C2.97 0.99 5.94 1.98 9 3 C9 3.66 9 4.32 9 5 C8.34 4.99 7.67 4.98 6.99 4.96 C0.44 4.88 0.44 4.88 -6 6 C-4 4 -2 2 0 0 Z " fill="#3FAB02" transform="translate(32,142)"/>
<path d="M0 0 C2.31 0 4.62 0 7 0 C7.04 1.67 7.04 3.33 7 5 C6 6 6 6 2.94 6.06 C1.48 6.03 1.48 6.03 0 6 C0 4.02 0 2.04 0 0 Z " fill="#F7F7F7" transform="translate(216,165)"/>
<path d="M0 0 C2.06 0.44 2.06 0.44 4 1 C4.33 2.65 4.66 4.3 5 6 C2.62 6.62 2.62 6.62 0 7 C-0.66 6.34 -1.32 5.68 -2 5 C-1.46 1.46 -1.46 1.46 0 0 Z " fill="#DFDFDF" transform="translate(182,238)"/>
<path d="M0 0 C0.99 0.33 1.98 0.66 3 1 C0.75 4.43 -1.49 5.96 -5 8 C-7.06 9.61 -9.02 11.3 -11 13 C-10.54 8.71 -8.1 6.97 -4.94 4.25 C-4.02 3.45 -3.1 2.65 -2.15 1.83 C-1.44 1.22 -0.73 0.62 0 0 Z " fill="#D6E0E9" transform="translate(59,43)"/>
<path d="M0 0 C1.89 0.06 1.89 0.06 3.81 0.12 C6.81 5.88 6.81 5.88 6.81 8.12 C5.16 7.79 3.51 7.47 1.81 7.12 C1.81 5.47 1.81 3.82 1.81 2.12 C-1.16 2.12 -4.13 2.12 -7.19 2.12 C-4.1 0.07 -3.48 -0.11 0 0 Z " fill="#A5B7C4" transform="translate(100.1875,144.875)"/>
<path d="M0 0 C0.93 0.06 1.85 0.11 2.81 0.17 C5.08 0.31 7.35 0.46 9.62 0.62 C9.62 0.96 9.62 1.28 9.62 1.62 C3.03 1.62 -3.58 1.62 -10.38 1.62 C-10.38 2.28 -10.38 2.94 -10.38 3.62 C-12.03 3.62 -13.67 3.62 -15.38 3.62 C-15.7 2.97 -16.03 2.31 -16.38 1.62 C-10.79 -0.8 -5.92 -0.42 0 0 Z " fill="#424446" transform="translate(90.375,150.375)"/>
<path d="M0 0 C0.66 0 1.32 0 2 0 C2.19 0.61 2.39 1.23 2.59 1.86 C2.85 2.67 3.11 3.48 3.38 4.31 C3.63 5.11 3.89 5.91 4.15 6.74 C4.99 9.23 4.99 9.23 7 12 C6.01 13.49 6.01 13.49 5 15 C1.11 10.1 0.28 6.2 0 0 Z " fill="#737372" transform="translate(93,122)"/>
<path d="M0 0 C0.66 0.33 1.32 0.66 2 1 C1.67 2.32 1.34 3.64 1 5 C3.47 5.99 3.47 5.99 6 7 C5.67 7.66 5.34 8.32 5 9 C2.62 9.12 2.62 9.12 0 9 C-2 7 -2 7 -2.12 3.88 C-2.08 2.93 -2.04 1.98 -2 1 C-1.34 0.67 -0.68 0.34 0 0 Z " fill="#080808" transform="translate(180,238)"/>
<path d="M0 0 C2.64 0 5.28 0 8 0 C7.67 1.65 7.34 3.3 7 5 C2.25 5.12 2.25 5.12 0 4 C0 2.68 0 1.36 0 0 Z " fill="#232323" transform="translate(107,244)"/>
<path d="M0 0 C3.95 0.55 7.35 1.39 11 3 C10.34 4.32 9.68 5.64 9 7 C9 6.34 9 5.68 9 5 C5.7 4.34 2.4 3.68 -1 3 C-0.67 2.01 -0.34 1.02 0 0 Z " fill="#0B1408" transform="translate(32,140)"/>
<path d="M0 0 C2 2 2 2 2 5 C4.31 3.35 6.62 1.7 9 0 C7.5 3.11 5.92 6.12 4 9 C3.34 9 2.68 9 2 9 C0.93 6.7 -0.06 4.36 -1 2 C-0.67 1.34 -0.34 0.68 0 0 Z " fill="#112607" transform="translate(146,129)"/>
<path d="M0 0 C2.47 0.5 2.47 0.5 5 1 C4.67 2.65 4.34 4.3 4 6 C2.68 6 1.36 6 0 6 C0 4.02 0 2.04 0 0 Z " fill="#E8E8E8" transform="translate(124,248)"/>
<path d="M0 0 C0.66 0 1.32 0 2 0 C2.33 1.32 2.66 2.64 3 4 C3.66 4 4.32 4 5 4 C4.67 4.99 4.34 5.98 4 7 C2.35 7 0.7 7 -1 7 C-0.67 4.69 -0.34 2.38 0 0 Z " fill="#0D0D0D" transform="translate(168,245)"/>
<path d="M0 0 C0.66 0 1.32 0 2 0 C2 1.98 2 3.96 2 6 C2.99 6 3.98 6 5 6 C5 6.66 5 7.32 5 8 C2.69 8 0.38 8 -2 8 C-2 7.34 -2 6.68 -2 6 C-1.34 6 -0.68 6 0 6 C0 4.02 0 2.04 0 0 Z " fill="#080808" transform="translate(140,248)"/>
<path d="M0 0 C0.99 0.66 1.98 1.32 3 2 C3.19 5.12 3.19 5.12 3 8 C2.34 7.01 1.68 6.02 1 5 C0.34 5.66 -0.32 6.32 -1 7 C-0.67 7.66 -0.34 8.32 0 9 C-1.65 9 -3.3 9 -5 9 C-4.04 7.89 -4.04 7.89 -3.06 6.75 C-1.22 4.29 -0.44 2.97 0 0 Z " fill="#D1D1D1" transform="translate(243,201)"/>
<path d="M0 0 C2.5 0.81 2.5 0.81 5.5 3.81 C1.87 3.81 -1.76 3.81 -5.5 3.81 C-5.5 3.15 -5.5 2.49 -5.5 1.81 C-2.5 -0.19 -2.5 -0.19 0 0 Z " fill="#329001" transform="translate(222.5,145.1875)"/>
<path d="M0 0 C1.65 0 3.3 0 5 0 C4.67 1.65 4.34 3.3 4 5 C2.68 4.67 1.36 4.34 0 4 C0 2.68 0 1.36 0 0 Z " fill="#E3E3E3" transform="translate(248,205)"/>
<path d="M0 0 C3 3 3 3 3.07 5.26 C2.95 6.06 2.82 6.86 2.69 7.69 C2.51 8.9 2.51 8.9 2.32 10.14 C2.22 10.75 2.11 11.37 2 12 C1.34 12 0.68 12 0 12 C0 8.04 0 4.08 0 0 Z " fill="#DFEEF9" transform="translate(13,131)"/>
<path d="M0 0 C0.33 0.99 0.66 1.98 1 3 C2.65 3 4.3 3 6 3 C6 3.99 6 4.98 6 6 C0.25 5.12 0.25 5.12 -2 4 C-2 3.01 -2 2.02 -2 1 C-1.34 0.67 -0.68 0.34 0 0 Z " fill="#232323" transform="translate(62,240)"/>
<path d="M0 0 C0.66 0.33 1.32 0.66 2 1 C-1.21 4.81 -4.41 8.55 -8 12 C-7.41 8.34 -5.92 6.45 -3.44 3.75 C-2.8 3.04 -2.16 2.34 -1.5 1.61 C-0.76 0.81 -0.76 0.81 0 0 Z " fill="#E7EAEF" transform="translate(45,57)"/>
<path d="M0 0 C0.66 0.33 1.32 0.66 2 1 C2.62 4.06 2.62 4.06 3 7 C1.35 7 -0.3 7 -2 7 C-1.34 4.69 -0.68 2.38 0 0 Z " fill="#CACACA" transform="translate(190,170)"/>
<path d="M0 0 C0.66 0 1.32 0 2 0 C2.33 2.64 2.66 5.28 3 8 C2.01 8 1.02 8 0 8 C0 5.36 0 2.72 0 0 Z " fill="#181818" transform="translate(154,247)"/>
<path d="M0 0 C2.31 0.66 4.62 1.32 7 2 C7 2.66 7 3.32 7 4 C5.68 4 4.36 4 3 4 C1.25 5.42 1.25 5.42 0 7 C0 4.69 0 2.38 0 0 Z " fill="#434447" transform="translate(162,48)"/>
<path d="M0 0 C1.5 1.31 1.5 1.31 3 3 C3 3.99 3 4.98 3 6 C1.35 6 -0.3 6 -2 6 C-1.34 4.02 -0.68 2.04 0 0 Z " fill="#D2D2D2" transform="translate(129,171)"/>
<path d="M0 0 C0.33 0 0.66 0 1 0 C0.69 3.38 0.69 3.38 0 7 C-3.23 9.15 -4.28 9.2 -8 9 C-7.4 8.73 -6.8 8.46 -6.19 8.19 C-3.13 6.53 -1.37 5.19 -0.31 1.81 C-0.16 0.92 -0.16 0.92 0 0 Z " fill="#2D2D2D" transform="translate(189,239)"/>
<path d="M0 0 C2.31 0.33 4.62 0.66 7 1 C7 1.99 7 2.98 7 4 C5.35 4 3.7 4 2 4 C1.34 2.68 0.68 1.36 0 0 Z " fill="#1B1D1F" transform="translate(156,150)"/>
<path d="M0 0 C2 2 2 2 2.12 4.62 C2.08 5.41 2.04 6.19 2 7 C-0.38 7.62 -0.38 7.62 -3 8 C-3.66 7.34 -4.32 6.68 -5 6 C-4.34 5.67 -3.68 5.34 -3 5 C-2.01 5.33 -1.02 5.66 0 6 C0 4.02 0 2.04 0 0 Z " fill="#8D8E8D" transform="translate(142,132)"/>
<path d="M0 0 C2.32 2.85 3.75 5.54 5 9 C2.53 8.01 2.53 8.01 0 7 C0 4.69 0 2.38 0 0 Z " fill="#379E03" transform="translate(183,128)"/>
<path d="M0 0 C0.33 0.66 0.66 1.32 1 2 C2.65 2 4.3 2 6 2 C6 2.99 6 3.98 6 5 C3.03 4.5 3.03 4.5 0 4 C0 2.68 0 1.36 0 0 Z " fill="#7E7E7E" transform="translate(92,243)"/>
<path d="M0 0 C2.97 0.5 2.97 0.5 6 1 C5.67 1.99 5.34 2.98 5 4 C3.35 4 1.7 4 0 4 C0 2.68 0 1.36 0 0 Z " fill="#151515" transform="translate(93,241)"/>
<path d="M0 0 C0.33 0 0.66 0 1 0 C1.31 2.25 1.31 2.25 1 5 C-1.5 7.31 -1.5 7.31 -4 9 C-4 8.01 -4 7.02 -4 6 C-2.68 5.34 -1.36 4.68 0 4 C0 2.68 0 1.36 0 0 Z " fill="#2E2E2E" transform="translate(241,201)"/>
<path d="M0 0 C0.99 0.33 1.98 0.66 3 1 C2.67 2.65 2.34 4.3 2 6 C0.68 5.67 -0.64 5.34 -2 5 C-1.67 4.36 -1.34 3.72 -1 3.06 C0.07 1.23 0.07 1.23 0 0 Z " fill="#37A101" transform="translate(162,126)"/>
</svg>
